<svg xmlns="http://www.w3.org/2000/svg" viewBox="0 0 16 16"><defs><style>.a{fill:#fff;}</style></defs><path class="a" d="M8,0A8.1,8.1,0,0,0,0,8.2a8.188,8.188,0,0,0,5.471,7.783c.4.076.529-.178.529-.394V14.064c-2.225.5-2.689-.968-2.689-.968a2.159,2.159,0,0,0-.889-1.2c-.726-.509.055-.5.055-.5a1.684,1.684,0,0,1,1.226.846,1.679,1.679,0,0,0,2.328.681,1.757,1.757,0,0,1,.508-1.1C4.763,11.62,2.9,10.917,2.9,7.774a3.219,3.219,0,0,1,.824-2.2A3.019,3.019,0,0,1,3.8,3.4s.672-.22,2.2.841a7.4,7.4,0,0,1,4.006,0c1.527-1.061,2.2-.841,2.2-.841a3.017,3.017,0,0,1,.079,2.171,3.211,3.211,0,0,1,.823,2.2c0,3.15-1.871,3.844-3.653,4.047A1.987,1.987,0,0,1,10,13.34v2.251c0,.218.128.474.534.394A8.189,8.189,0,0,0,16,8.2,8.1,8.1,0,0,0,8,0Z"/></svg>