<svg xmlns="http://www.w3.org/2000/svg" viewBox="0 0 30 30"><defs><style>.a{fill:#f22b29;}</style></defs><path class="a" d="M25.6,1.138A9.139,9.139,0,0,0,21.169,0a8.972,8.972,0,0,0-7.705,4.246L.38,25.925A2.611,2.611,0,0,0,0,27.279,2.78,2.78,0,0,0,2.836,30,2.868,2.868,0,0,0,5.3,28.643L18.384,6.964a3.283,3.283,0,0,1,4.373-1.12,2.993,2.993,0,0,1,1.171,4.183L22.4,12.555a2.659,2.659,0,0,0,1.04,3.713,2.914,2.914,0,0,0,3.88-1C28.865,12.713,30,11.223,30,8.509a8.4,8.4,0,0,0-4.4-7.371ZM24.778,11.6l.5-.824a4.405,4.405,0,0,0,.6-1.738l2.559.174a6.738,6.738,0,0,1-.823,2.58L24.778,11.6ZM16.5,7.1l-1.66-2.155A7.027,7.027,0,0,1,16.708,2.93L18.23,4.906a4.553,4.553,0,0,0-1.2,1.314L16.5,7.1ZM3.4,23.905,4.9,21.42l1.661,2.155-1.5,2.485L3.4,23.905Zm3.786-6.274,1.5-2.485L10.345,17.3l-1.5,2.484L7.184,17.631Zm3.784-6.27,1.5-2.484,1.661,2.155-1.5,2.485-1.661-2.156Zm11.275-7.3L23.56,1.879a7.514,7.514,0,0,1,1.256.548,7.39,7.39,0,0,1,1.125.766L24.623,5.378a4.66,4.66,0,0,0-1.09-.825A4.823,4.823,0,0,0,22.243,4.064Z" transform="translate(0 0)"/></svg>