<svg xmlns="http://www.w3.org/2000/svg" viewBox="0 0 35.851 35.851"><defs><style>.a{fill:#f22b29;fill-rule:evenodd;}</style></defs><path class="a" d="M20.26,35.851H2.988A2.989,2.989,0,0,1,0,32.863V2.988A2.989,2.989,0,0,1,2.988,0H23.9a2.989,2.989,0,0,1,2.988,2.988V8.963H23.9V4.481H2.988V29.876H19.419V33.61A3.114,3.114,0,0,0,20.26,35.851ZM33.61,10.457A2.241,2.241,0,0,1,35.851,12.7V33.61a2.242,2.242,0,0,1-2.241,2.241H23.154a2.243,2.243,0,0,1-2.241-2.241V12.7a2.243,2.243,0,0,1,2.241-2.241ZM13.444,31.37a1.494,1.494,0,1,1-1.494,1.494A1.494,1.494,0,0,1,13.444,31.37Zm14.938,2.988a1.494,1.494,0,1,1,1.492-1.494A1.493,1.493,0,0,1,28.382,34.357Zm5.975-4.481V14.9H22.407V29.876ZM29.129,13.444a.747.747,0,0,0,0-1.494H27.635a.747.747,0,0,0,0,1.494Z"/></svg>