<svg xmlns="http://www.w3.org/2000/svg" viewBox="0 0 34.491 34.491"><defs><style>.a{fill:#f22b29;}</style></defs><path class="a" d="M34.416.06Q33.526,0,32.672,0c-12.359,0-19.4,9.423-21.956,17.006L17.509,23.8c7.8-2.794,16.983-9.571,16.983-21.8q0-.949-.075-1.94ZM18.21,20.436l-4.143-4.143C15.821,12.184,20.808,3.438,31.6,2.9,31.237,11.2,25.791,17.172,18.21,20.436Zm7.863,2.21q-1.179.8-2.34,1.453a8.884,8.884,0,0,1-1.942,3.811,5.8,5.8,0,0,0-.637-2.5c-.711.323-1.388.6-2.032.845.949,2.456-.017,4.27-1.315,5.97a8.678,8.678,0,0,0,5.358-2.594A10.146,10.146,0,0,0,26.072,22.646ZM9.086,13.35A5.794,5.794,0,0,0,6.6,12.716a8.963,8.963,0,0,1,3.774-1.933c.451-.793.959-1.577,1.493-2.347a10.143,10.143,0,0,0-6.99,2.907A8.691,8.691,0,0,0,2.281,16.7c1.7-1.3,3.515-2.265,5.971-1.314q.373-1.015.834-2.038Zm11.121.953a1.437,1.437,0,1,1,2.032,0,1.436,1.436,0,0,1-2.032,0Zm7.112-7.115a2.874,2.874,0,1,0,0,4.066A2.876,2.876,0,0,0,27.318,7.187ZM24.576,9.933a1.006,1.006,0,1,1,1.423,0A1.007,1.007,0,0,1,24.576,9.933Zm-9.7,15.305C12.736,30.714,6.54,34.161,0,34.491.315,28.327,3.818,22.023,9.543,19.9L10.7,21.058C4.475,25.018,4.012,28.741,4,30.507c1.822-.022,5.826-.494,9.741-6.415Z" transform="translate(0 0)"/></svg>